<svg id="visual" viewBox="0 0 1280 720" width="1280" height="720" xmlns="http://www.w3.org/2000/svg" xmlns:xlink="http://www.w3.org/1999/xlink" version="1.1"><rect x="0" y="0" width="1280" height="720" fill="#001220"></rect><path d="M0 528L26.7 524.5C53.3 521 106.7 514 160 514.7C213.3 515.3 266.7 523.7 320 530.8C373.3 538 426.7 544 480 554.5C533.3 565 586.7 580 640 585.3C693.3 590.7 746.7 586.3 800 580.3C853.3 574.3 906.7 566.7 960 553.7C1013.3 540.7 1066.7 522.3 1120 524C1173.3 525.7 1226.7 547.3 1253.3 558.2L1280 569L1280 721L1253.3 721C1226.7 721 1173.3 721 1120 721C1066.7 721 1013.3 721 960 721C906.7 721 853.3 721 800 721C746.7 721 693.3 721 640 721C586.7 721 533.3 721 480 721C426.7 721 373.3 721 320 721C266.7 721 213.3 721 160 721C106.7 721 53.3 721 26.7 721L0 721Z" fill="#0f3262"></path><path d="M0 654L26.7 654.3C53.3 654.7 106.7 655.3 160 653C213.3 650.7 266.7 645.3 320 636.2C373.3 627 426.7 614 480 615C533.3 616 586.7 631 640 632.3C693.3 633.7 746.7 621.3 800 618.5C853.3 615.7 906.7 622.3 960 622.2C1013.3 622 1066.7 615 1120 609C1173.3 603 1226.7 598 1253.3 595.5L1280 593L1280 721L1253.3 721C1226.7 721 1173.3 721 1120 721C1066.7 721 1013.3 721 960 721C906.7 721 853.3 721 800 721C746.7 721 693.3 721 640 721C586.7 721 533.3 721 480 721C426.7 721 373.3 721 320 721C266.7 721 213.3 721 160 721C106.7 721 53.3 721 26.7 721L0 721Z" fill="#041e41"></path></svg>