<svg id="visual" viewBox="0 0 960 540" width="960" height="540" xmlns="http://www.w3.org/2000/svg" xmlns:xlink="http://www.w3.org/1999/xlink" version="1.1"><rect x="0" y="0" width="960" height="540" fill="#001220"></rect><defs><linearGradient id="grad1_0" x1="43.8%" y1="0%" x2="100%" y2="100%"><stop offset="14.444444444444446%" stop-color="#0168cf" stop-opacity="1"></stop><stop offset="85.55555555555554%" stop-color="#0168cf" stop-opacity="1"></stop></linearGradient></defs><defs><linearGradient id="grad1_1" x1="43.8%" y1="0%" x2="100%" y2="100%"><stop offset="14.444444444444446%" stop-color="#0168cf" stop-opacity="1"></stop><stop offset="85.55555555555554%" stop-color="#003d72" stop-opacity="1"></stop></linearGradient></defs><defs><linearGradient id="grad1_2" x1="43.8%" y1="0%" x2="100%" y2="100%"><stop offset="14.444444444444446%" stop-color="#001220" stop-opacity="1"></stop><stop offset="85.55555555555554%" stop-color="#003d72" stop-opacity="1"></stop></linearGradient></defs><defs><linearGradient id="grad2_0" x1="0%" y1="0%" x2="56.3%" y2="100%"><stop offset="14.444444444444446%" stop-color="#0168cf" stop-opacity="1"></stop><stop offset="85.55555555555554%" stop-color="#0168cf" stop-opacity="1"></stop></linearGradient></defs><defs><linearGradient id="grad2_1" x1="0%" y1="0%" x2="56.3%" y2="100%"><stop offset="14.444444444444446%" stop-color="#003d72" stop-opacity="1"></stop><stop offset="85.55555555555554%" stop-color="#0168cf" stop-opacity="1"></stop></linearGradient></defs><defs><linearGradient id="grad2_2" x1="0%" y1="0%" x2="56.3%" y2="100%"><stop offset="14.444444444444446%" stop-color="#003d72" stop-opacity="1"></stop><stop offset="85.55555555555554%" stop-color="#001220" stop-opacity="1"></stop></linearGradient></defs><g transform="translate(960, 0)"><path d="M0 351C-46.7 340.7 -93.5 330.3 -126.7 305.8C-159.9 281.3 -179.5 242.5 -214.3 214.3C-249 186 -299 168.3 -324.3 134.3C-349.6 100.4 -350.3 50.2 -351 0L0 0Z" fill="#002847"></path><path d="M0 234C-31.2 227.1 -62.3 220.2 -84.4 203.9C-106.6 187.5 -119.6 161.7 -142.8 142.8C-166 124 -199.3 112.2 -216.2 89.5C-233.1 66.9 -233.5 33.5 -234 0L0 0Z" fill="#0053a0"></path><path d="M0 117C-15.6 113.6 -31.2 110.1 -42.2 101.9C-53.3 93.8 -59.8 80.8 -71.4 71.4C-83 62 -99.7 56.1 -108.1 44.8C-116.5 33.5 -116.8 16.7 -117 0L0 0Z" fill="#0168cf"></path></g><g transform="translate(0, 540)"><path d="M0 -351C36.8 -323.9 73.7 -296.8 117.5 -283.6C161.3 -270.5 212 -271.3 248.2 -248.2C284.3 -225.1 305.9 -178.1 320.6 -132.8C335.3 -87.4 343.1 -43.7 351 0L0 0Z" fill="#002847"></path><path d="M0 -234C24.6 -215.9 49.1 -197.9 78.3 -189.1C107.5 -180.3 141.4 -180.9 165.5 -165.5C189.6 -150.1 203.9 -118.8 213.7 -88.5C223.5 -58.3 228.8 -29.1 234 0L0 0Z" fill="#0053a0"></path><path d="M0 -117C12.3 -108 24.6 -98.9 39.2 -94.5C53.8 -90.2 70.7 -90.4 82.7 -82.7C94.8 -75 102 -59.4 106.9 -44.3C111.8 -29.1 114.4 -14.6 117 0L0 0Z" fill="#0168cf"></path></g></svg>